PathFileType	4	(X/Y/Z)	c:/Users/goper/Files/vsCode/490R/osim_files/A03/A03_SSWS_01.trc
DataRate	CameraRate	NumFrames	NumMarkers	Units                	OrigDataRate	OrigDataStartFrame	OrigNumFrames
250.00	250.00	4	36	mm	250.0	1831	2929
                Frame#	Time	LPSIS			LASIS			LTH1			LTH2			LTH3			LTH4			LLFE			LMFE			LSH1			LSH2			LSH3			LSH4			LLMAL			LMMAL			LCAL			LMTP5			LTOE			LMTP1			RPSIS			RASIS			RTH1			RTH2			RTH3			RTH4			RLFE			RMFE			RSH1			RSH2			RSH3			RSH4			RLMAL			RMMAL			RCAL			RMTP1			RTOE			RMTP5		
		X1	Y1	Z1	X2	Y2	Z2	X3	Y3	Z3	X4	Y4	Z4	X5	Y5	Z5	X6	Y6	Z6	X7	Y7	Z7	X8	Y8	Z8	X9	Y9	Z9	X10	Y10	Z10	X11	Y11	Z11	X12	Y12	Z12	X13	Y13	Z13	X14	Y14	Z14	X15	Y15	Z15	X16	Y16	Z16	X17	Y17	Z17	X18	Y18	Z18	X19	Y19	Z19	X20	Y20	Z20	X21	Y21	Z21	X22	Y22	Z22	X23	Y23	Z23	X24	Y24	Z24	X25	Y25	Z25	X26	Y26	Z26	X27	Y27	Z27	X28	Y28	Z28	X29	Y29	Z29	X30	Y30	Z30	X31	Y31	Z31	X32	Y32	Z32	X33	Y33	Z33	X34	Y34	Z34	X35	Y35	Z35	X36	Y36	Z36

1831	7.32000	-1442.75281	1074.74939	367.42395	-1677.53076	998.78986	493.95157	-1768.74756	677.75372	562.84662	-1794.25635	642.63715	561.75677	-1821.72278	706.14685	545.14764	-1838.27332	665.75842	545.69379	-1799.66052	588.20630	551.03015	-1839.58997	586.95575	400.26666	-1762.06738	500.73297	542.60175	-1764.95557	452.64465	539.64880	-1824.23901	495.67178	543.34100	-1816.17859	449.14496	535.69653	-1771.81433	129.11800	495.46939	-1792.26941	135.19151	399.28656	-1707.84570	113.57262	435.57300	-1921.02271	70.74147	519.20386	-1955.12561	102.99469	454.43011	-1929.60327	81.91611	405.56686	-1444.42749	1083.34290	283.04117	-1684.17261	976.95056	196.74522	-1578.71362	613.55054	172.90788	-1580.45752	569.88147	183.58640	-1639.05225	611.48328	180.51907	-1633.97839	568.67340	190.37448	-1597.80371	533.14813	201.70793	-1632.93262	541.34814	321.34894	-1534.37097	474.38531	202.47125	-1524.64209	433.92865	192.73761	-1593.38318	455.07254	200.06551	-1575.27209	412.70691	192.43770	-1471.28149	125.09988	253.34167	-1504.16187	120.69763	341.90430	-1411.90430	90.06766	312.88657	-1620.48523	49.07121	357.86362	-1650.79407	72.63087	308.83029	-1619.53796	41.82175	239.23798
1832	7.32400	-1447.02246	1074.40283	368.20691	-1682.58118	997.80359	494.31546	-1773.31958	676.95825	562.00165	-1798.98083	642.00146	560.70190	-1826.04382	705.72632	544.11597	-1843.26562	665.54132	544.57037	-1804.20947	587.73688	549.84314	-1843.86646	586.77246	399.00665	-1768.54858	499.37836	541.81085	-1772.51611	451.33893	538.96674	-1830.83325	495.73779	542.44275	-1823.82007	448.97873	535.00531	-1786.63831	127.90938	496.14395	-1806.65588	133.89720	400.01340	-1722.92371	110.71101	436.37036	-1937.19202	73.00675	519.81787	-1970.36047	105.74236	454.81488	-1945.35425	83.89449	406.15631	-1448.32849	1083.12134	283.88605	-1687.60193	976.39233	196.67451	-1580.04175	613.32166	173.03650	-1582.30115	569.57257	183.54533	-1641.01648	610.96973	180.35559	-1635.80664	568.15289	190.14514	-1599.55920	532.78888	201.61006	-1635.20276	540.71790	321.13281	-1535.89697	474.25967	202.49313	-1525.98352	433.85751	192.77356	-1594.89075	454.66650	199.94421	-1576.51526	412.41675	192.27522	-1471.36072	125.16832	253.35631	-1504.27063	120.74747	341.89905	-1411.91504	90.09064	312.86356	-1620.48523	49.06294	357.80185	-1650.74463	72.66022	308.78452	-1619.51404	41.77696	239.18315
1833	7.32800	-1451.22876	1074.05579	369.07034	-1686.46228	997.14325	494.16895	-1777.86597	676.14563	561.18811	-1803.74683	641.31067	559.65778	-1830.34094	705.22266	543.03253	-1847.36987	665.08118	543.18475	-1808.79895	587.20746	548.65588	-1848.01392	586.44855	397.73438	-1775.00684	498.00522	541.02142	-1780.00769	450.07153	538.37543	-1837.33032	495.74805	541.57239	-1831.47693	448.85233	534.32666	-1801.32837	126.88201	496.76453	-1821.08936	132.92743	400.49908	-1737.90771	107.88376	437.09946	-1952.97119	75.45652	520.33710	-1985.48218	108.61002	455.23364	-1960.79260	86.12444	406.58401	-1452.36243	1082.79016	284.80585	-1691.76099	975.93292	197.16946	-1582.61890	612.98743	172.89243	-1584.16724	569.23938	183.53174	-1643.05750	610.42401	180.16412	-1637.68823	567.60205	189.93130	-1601.44409	532.39709	201.47701	-1637.58813	540.11072	320.90472	-1537.54614	474.08905	202.52057	-1527.42944	433.73422	192.82375	-1596.37207	454.24149	199.78174	-1577.75024	412.06192	192.22017	-1471.45471	125.21365	253.38647	-1504.40210	120.82360	341.90875	-1412.11926	90.09630	312.80219	-1620.49194	49.11359	357.77112	-1650.67468	72.68845	308.72025	-1619.48157	41.74860	239.13448
1834	7.33200	-1455.62244	1073.57971	369.91965	-1690.92603	996.21924	494.22922	-1782.31543	675.20789	560.43939	-1808.44604	640.53638	558.62598	-1834.58252	704.66400	541.97754	-1851.84229	664.62689	541.94788	-1813.28333	586.54419	547.45972	-1852.16833	586.06903	396.42120	-1781.42261	496.59998	540.21783	-1787.49451	448.78058	537.75031	-1843.79980	495.73996	540.66803	-1838.96033	448.73633	533.63495	-1815.90955	125.96042	497.34912	-1835.37219	132.12506	400.98721	-1752.77002	105.41080	437.86301	-1968.83130	78.05907	520.94263	-2000.93140	111.55375	454.66983	-1976.09998	88.45262	407.06201	-1456.48462	1082.40601	285.75867	-1693.41650	974.62708	195.62344	-1584.67664	612.62634	172.89278	-1586.11145	568.88629	183.51672	-1645.10925	609.80890	179.93617	-1639.70544	567.04333	189.75366	-1603.29333	531.93958	201.37248	-1639.90857	539.39246	320.72357	-1539.20435	473.87225	202.56023	-1528.82556	433.59021	192.86267	-1597.83533	453.75903	199.66051	-1579.06909	411.69131	192.10788	-1471.51709	125.25430	253.41730	-1504.51660	120.85974	341.93521	-1411.92688	90.05294	312.88510	-1620.44556	49.13047	357.74103	-1650.62329	72.70489	308.66837	-1619.45947	41.74195	239.08092
